Coordinates
version=1
nRows=27
nColumns=38
inDegrees=no

Units are S.I. units (second, meters, Newtons, ...)
If the header above contains a line with 'inDegrees', this indicates whether rotational values are in degrees (yes) or radians (no).

endheader
time	pelvis_tilt	pelvis_list	pelvis_rotation	pelvis_tx	pelvis_ty	pelvis_tz	hip_flexion_r	hip_adduction_r	hip_rotation_r	knee_angle_r	ankle_angle_r	subtalar_angle_r	mtp_angle_r	hip_flexion_l	hip_adduction_l	hip_rotation_l	knee_angle_l	ankle_angle_l	subtalar_angle_l	mtp_angle_l	lumbar_extension	lumbar_bending	lumbar_rotation	arm_flex_r	arm_add_r	arm_rot_r	elbow_flex_r	pro_sup_r	wrist_flex_r	wrist_dev_r	arm_flex_l	arm_add_l	arm_rot_l	elbow_flex_l	pro_sup_l	wrist_flex_l	wrist_dev_l
1.13	-3.11205	1.00503	1.55244	0.601158	0.519964	1.01974	0.488568	0.0579314	-0.05302	0.230487	-0.108784	0	0	0.958166	-0.0771503	-0.083708	0.634472	-0.160042	0	0	0.603758	0.0222713	0.0308925	-0.133148	-0.416752	0.28151	0.540244	1.31749	0	0	-0.381938	-0.0947671	-0.566233	0.56008	1.01944	0	0
1.14	-3.11874	1.00571	1.55188	0.600472	0.507672	1.01919	0.473809	0.0575184	-0.0512722	0.227407	-0.107855	0	0	0.952156	-0.0797296	-0.10475	0.55809	-0.180158	0	0	0.603757	0.0217925	0.0394888	-0.131674	-0.41885	0.267391	0.559119	1.33108	0	0	-0.379511	-0.0942124	-0.565839	0.562906	1.02321	0	0
1.15	-3.12412	1.00652	1.54958	0.599789	0.495261	1.01843	0.459064	0.0578836	-0.0497591	0.224986	-0.107285	0	0	0.944144	-0.0821778	-0.125644	0.479218	-0.203924	0	0	0.603252	0.0223619	0.0475761	-0.129454	-0.421284	0.256525	0.577257	1.34472	0	0	-0.377733	-0.0935335	-0.565129	0.566819	1.02718	0	0
1.16	-3.1274	1.00783	1.54506	0.599146	0.482724	1.01746	0.443712	0.0592492	-0.0476699	0.222905	-0.106838	0	0	0.934089	-0.0845876	-0.144313	0.398541	-0.229344	0	0	0.601848	0.0243615	0.0549714	-0.126926	-0.42416	0.247389	0.595251	1.35742	0	0	-0.376459	-0.0928912	-0.563354	0.571538	1.03201	0	0
1.17	-3.12906	1.00881	1.53903	0.598558	0.4701	1.01624	0.42879	0.0611409	-0.046405	0.221297	-0.106289	0	0	0.923981	-0.0868837	-0.161003	0.318876	-0.252338	0	0	0.600717	0.0272242	0.061496	-0.124418	-0.427314	0.23999	0.612932	1.36945	0	0	-0.375944	-0.0922999	-0.561107	0.577037	1.0376	0	0
1.18	-3.12869	1.00901	1.53107	0.59801	0.457437	1.01474	0.414944	0.0638607	-0.0456764	0.220606	-0.105897	0	0	0.914927	-0.0895814	-0.174189	0.242961	-0.268471	0	0	0.60022	0.0310648	0.0667396	-0.121306	-0.431093	0.236503	0.629991	1.37944	0	0	-0.376395	-0.0913067	-0.559577	0.583672	1.04279	0	0
1.19	-3.12659	1.00948	1.52127	0.597505	0.444671	1.01302	0.401118	0.0672218	-0.0455505	0.220995	-0.105109	0	0	0.906474	-0.0926505	-0.183525	0.173716	-0.279026	0	0	0.599007	0.0359712	0.0709878	-0.117647	-0.435128	0.23443	0.646728	1.38894	0	0	-0.377348	-0.0896072	-0.559463	0.591175	1.04786	0	0
1.2	-3.12342	1.01006	1.5107	0.59709	0.431816	1.01113	0.38786	0.070641	-0.0465546	0.223299	-0.103553	0	0	0.898647	-0.0954143	-0.188253	0.111411	-0.282841	0	0	0.597321	0.04126	0.0740702	-0.113403	-0.439221	0.233632	0.662835	1.3977	0	0	-0.379023	-0.0875463	-0.559659	0.599634	1.05263	0	0
1.21	-3.12026	1.01034	1.50066	0.596762	0.418848	1.00909	0.375895	0.0734525	-0.0485761	0.228113	-0.102194	0	0	0.891677	-0.0974351	-0.188219	0.0557055	-0.283587	0	0	0.59596	0.0460505	0.0761552	-0.108541	-0.442888	0.234411	0.677343	1.40567	0	0	-0.381347	-0.0855341	-0.560199	0.608401	1.05671	0	0
1.22	-3.11837	1.01028	1.4925	0.596529	0.405772	1.00697	0.36557	0.0749289	-0.0507498	0.235811	-0.101568	0	0	0.885891	-0.0985213	-0.184623	0.00703957	-0.284957	0	0	0.595235	0.0495475	0.0777581	-0.103265	-0.445899	0.237009	0.689695	1.41317	0	0	-0.383792	-0.0838984	-0.560959	0.616523	1.05982	0	0
1.23	-3.11786	1.00988	1.48661	0.596393	0.392571	1.00485	0.356797	0.0750651	-0.0524699	0.245393	-0.101066	0	0	0.884959	-0.0995778	-0.183695	0	-0.283497	0	0	0.59546	0.0515961	0.0790926	-0.0977529	-0.447758	0.240309	0.699221	1.41778	0	0	-0.385727	-0.0830852	-0.561258	0.622756	1.06156	0	0
1.24	-3.1189	1.00974	1.48269	0.596362	0.379224	1.00278	0.349524	0.0738575	-0.0536271	0.259127	-0.100577	0	0	0.884633	-0.0990538	-0.183167	0	-0.279115	0	0	0.595399	0.0524079	0.0802874	-0.0926968	-0.449447	0.24467	0.708461	1.42385	0	0	-0.387759	-0.082475	-0.561532	0.628782	1.06305	0	0
1.25	-3.12242	1.00974	1.48194	0.596482	0.365668	1.00085	0.343392	0.0707045	-0.053431	0.27506	-0.0996465	0	0	0.884324	-0.0956753	-0.182613	0	-0.270924	0	0	0.595866	0.051396	0.0816278	-0.0882281	-0.449809	0.248125	0.715535	1.4293	0	0	-0.388884	-0.0827262	-0.561167	0.631949	1.06437	0	0
1.26	-3.12866	1.01075	1.48469	0.596754	0.35186	0.999191	0.337434	0.0652842	-0.0524854	0.293407	-0.0979006	0	0	0.884098	-0.0896371	-0.184016	0	-0.256273	0	0	0.595564	0.0484513	0.0832074	-0.0844152	-0.448769	0.249959	0.720707	1.43674	0	0	-0.388729	-0.0838103	-0.560235	0.632015	1.06647	0	0
1.27	-3.13621	1.01232	1.48989	0.597109	0.337747	0.997768	0.331556	0.0585514	-0.0510803	0.312682	-0.0978771	0	0	0.884154	-0.0824739	-0.184833	0	-0.249542	0	0	0.595093	0.0441287	0.0846759	-0.0817917	-0.446733	0.250558	0.72471	1.44066	0	0	-0.387865	-0.085396	-0.559456	0.630026	1.06841	0	0
1.28	3.1389	1.01431	1.49643	0.597491	0.323317	0.996523	0.326033	0.0510253	-0.050155	0.333963	-0.0991024	0	0	0.8839	-0.0752137	-0.184177	0	-0.246437	0	0	0.594476	0.0389316	0.0862501	-0.0809643	-0.443818	0.249638	0.728141	1.4447	0	0	-0.386862	-0.0872093	-0.558888	0.627289	1.06991	0	0
1.29	3.13141	1.01643	1.50325	0.597912	0.308601	0.995363	0.321333	0.0432642	-0.0506468	0.357622	-0.10232	0	0	0.883931	-0.068625	-0.182343	0.0131133	-0.245847	0	0	0.594126	0.0334276	0.0875323	-0.0824975	-0.439934	0.245835	0.731616	1.45085	0	0	-0.386612	-0.0889528	-0.558358	0.625244	1.07068	0	0
1.3	3.12528	1.0178	1.50899	0.598356	0.293585	0.994126	0.318305	0.0358827	-0.0515264	0.383228	-0.108389	0	0	0.884138	-0.0631825	-0.177013	0.043768	-0.243604	0	0	0.594972	0.0283925	0.0878506	-0.08586	-0.436028	0.241783	0.73574	1.45652	0	0	-0.388674	-0.0900854	-0.558307	0.625431	1.07032	0	0
1.31	3.11971	1.01901	1.51299	0.598756	0.278221	0.992828	0.316632	0.0285919	-0.0516831	0.411194	-0.117796	0	0	0.881749	-0.0586275	-0.167279	0.0707918	-0.239884	0	0	0.596581	0.0242694	0.0884857	-0.0905559	-0.432384	0.238658	0.739987	1.46129	0	0	-0.392744	-0.0904186	-0.559307	0.627248	1.06922	0	0
1.32	3.11345	1.01951	1.51578	0.599058	0.26256	0.991436	0.317787	0.0207669	-0.0513208	0.443398	-0.129785	0	0	0.878793	-0.0541692	-0.157927	0.0935612	-0.240675	0	0	0.600232	0.020815	0.0907942	-0.0969153	-0.428569	0.235788	0.743566	1.46553	0	0	-0.398776	-0.0905121	-0.560847	0.630219	1.06777	0	0
1.33	3.10455	1.01734	1.51892	0.599159	0.246754	0.989885	0.324902	0.0116331	-0.047828	0.481767	-0.148059	0	0	0.878498	-0.0495941	-0.152621	0.110986	-0.258059	0	0	0.608338	0.0171866	0.0947295	-0.10473	-0.423481	0.232339	0.745703	1.47223	0	0	-0.406807	-0.0907947	-0.563422	0.633355	1.06565	0	0
1.34	3.09331	1.01224	1.52365	0.599186	0.231168	0.988297	0.33901	0.000926163	-0.0417401	0.526614	-0.16981	0	0	0.882506	-0.0458453	-0.150518	0.125495	-0.288581	0	0	0.620231	0.0126572	0.0985147	-0.112094	-0.417266	0.230081	0.745551	1.47897	0	0	-0.415394	-0.0914609	-0.566722	0.635159	1.06377	0	0
1.35	3.07996	1.00424	1.5317	0.599331	0.216014	0.986723	0.360293	-0.012036	-0.0347204	0.577327	-0.199345	0	0	0.889598	-0.0428208	-0.147896	0.139444	-0.314741	0	0	0.634836	0.00609098	0.10003	-0.117885	-0.409833	0.2294	0.742841	1.48596	0	0	-0.42433	-0.0925155	-0.570237	0.635991	1.06223	0	0
1.36	3.06407	0.996703	1.54449	0.59968	0.201264	0.985415	0.38425	-0.0277224	-0.0269571	0.630971	-0.232995	0	0	0.895326	-0.0382212	-0.141617	0.155723	-0.325014	0	0	0.646882	-0.00387007	0.0982217	-0.120498	-0.401317	0.230606	0.737892	1.4907	0	0	-0.432435	-0.0936766	-0.574632	0.63622	1.06082	0	0
1.37	3.04611	0.991117	1.5618	0.60018	0.186925	0.984481	0.408635	-0.0451433	-0.019052	0.685615	-0.268813	0	0	0.900213	-0.0304267	-0.131422	0.179898	-0.322848	0	0	0.654218	-0.0177441	0.0934066	-0.119553	-0.391304	0.233273	0.730131	1.49303	0	0	-0.439725	-0.0951521	-0.579567	0.637638	1.05917	0	0
1.38	3.02703	0.987276	1.58286	0.600766	0.172999	0.983876	0.433763	-0.0629485	-0.0107492	0.741595	-0.306346	0	0	0.90562	-0.0191175	-0.118557	0.212508	-0.31164	0	0	0.65741	-0.0352607	0.0863897	-0.116301	-0.379664	0.236188	0.719861	1.49226	0	0	-0.446149	-0.096786	-0.58609	0.641486	1.05586	0	0
1.39	3.00749	0.985017	1.60618	0.601392	0.159509	0.983466	0.46029	-0.0801464	-0.0020587	0.799679	-0.345849	0	0	0.910524	-0.00520019	-0.105434	0.248911	-0.29306	0	0	0.656801	-0.0550479	0.0783305	-0.112232	-0.36733	0.23867	0.708858	1.48898	0	0	-0.451469	-0.0982492	-0.594209	0.647908	1.05027	0	0
